<svg id="SvgjsSvg1001" width="288" height="288" xmlns="http://www.w3.org/2000/svg" version="1.1" xmlns:xlink="http://www.w3.org/1999/xlink" xmlns:svgjs="http://svgjs.com/svgjs"><defs id="SvgjsDefs1002"></defs><g id="SvgjsG1008" transform="matrix(1,0,0,1,0,0)"><svg xmlns="http://www.w3.org/2000/svg" viewBox="0 0 24 24" width="288" height="288"><path fill="#808080" d="M21,7V17H19V13.62l-6.55,3.27A1,1,0,0,1,12,17a1,1,0,0,1-.53-.15A1,1,0,0,1,11,16V13.62L4.45,16.89A1,1,0,0,1,4,17a1,1,0,0,1-.53-.15A1,1,0,0,1,3,16V8a1,1,0,0,1,1.45-.89L11,10.38V8a1,1,0,0,1,1.45-.89L19,10.38V7Z" class="color464646 svgShape"></path></svg></g></svg>